<svg id="Layer_1" data-name="Layer 1" xmlns="http://www.w3.org/2000/svg" viewBox="0 0 83 71.5"><defs><style>.cls-1{fill:none;stroke:#000;stroke-miterlimit:10;stroke-width:3px;}</style></defs><title>icon-privacy</title><rect class="cls-1" x="1.5" y="1.5" width="80" height="68.5"/><line class="cls-1" x1="1.5" y1="19.4" x2="81.5" y2="19.4"/><polygon points="13.4 5.6 14.8 8.6 18.2 9.1 15.8 11.4 16.3 14.7 13.4 13.1 10.4 14.7 11 11.4 8.6 9.1 11.9 8.6 13.4 5.6"/><rect class="cls-1" x="46.9" y="29.2" width="25.6" height="30.7"/><line class="cls-1" x1="26.5" y1="10.4" x2="36.5" y2="10.4"/><line class="cls-1" x1="39.5" y1="10.4" x2="49.5" y2="10.4"/><line class="cls-1" x1="52.5" y1="10.4" x2="62.5" y2="10.4"/><line class="cls-1" x1="39.5" y1="29.4" x2="9.5" y2="29.4"/><line class="cls-1" x1="39.5" y1="35.4" x2="9.5" y2="35.4"/><line class="cls-1" x1="39.5" y1="41.4" x2="9.5" y2="41.4"/><line class="cls-1" x1="39.5" y1="47.4" x2="9.5" y2="47.4"/><line class="cls-1" x1="39.5" y1="53.4" x2="9.5" y2="53.4"/></svg>