<svg id="Layer_1" data-name="Layer 1" xmlns="http://www.w3.org/2000/svg" viewBox="0 0 90 90"><title>icon-guide</title><path d="M45,90h.3A44.5,44.5,0,0,0,77,76.6,45,45,0,1,0,45,90ZM20.2,48.8a4.92,4.92,0,0,1,2.1.4L29.5,41A6.41,6.41,0,1,1,42,39a5.66,5.66,0,0,1-.3,1.8l6.7,7.5a5.66,5.66,0,0,1,1.8-.3,5.38,5.38,0,0,1,2.2.4L63.1,35.2a5.87,5.87,0,0,1-.4-2.3,6.4,6.4,0,1,1,6.4,6.4,8.81,8.81,0,0,1-1.7-.2l-11,13.6a8.81,8.81,0,0,1,.2,1.7,6.4,6.4,0,0,1-12.8,0,5.38,5.38,0,0,1,.4-2.2l-6.4-7.3a7.8,7.8,0,0,1-2.2.4,6.93,6.93,0,0,1-2-.3l-7.3,8.3a5.82,5.82,0,0,1,.3,1.9,6.4,6.4,0,1,1-12.8,0A6.32,6.32,0,0,1,20.2,48.8Z"/></svg>