<svg id="Layer_1" data-name="Layer 1" xmlns="http://www.w3.org/2000/svg" viewBox="0 0 300 300"><title>icon-mail</title><path d="M150,0A150,150,0,1,0,300,150,150,150,0,0,0,150,0Zm0,52.69L238.76,108H61.24Zm89.87,143.74h0a16.07,16.07,0,0,1-16.07,16.07H76.21a16.07,16.07,0,0,1-16.07-16.07V111.56a16,16,0,0,1,.25-2.75l84.81,52.88c.1.07.21.11.32.17l.34.18a8.9,8.9,0,0,0,1.85.72l.2,0a9.15,9.15,0,0,0,2.09.26h0a9,9,0,0,0,2.09-.26l.2,0a9,9,0,0,0,1.85-.72l.34-.18c.11-.06.22-.1.32-.17l84.81-52.88a16,16,0,0,1,.25,2.75v84.86Z" transform="translate(0)"/></svg>