<svg id="Layer_1" data-name="Layer 1" xmlns="http://www.w3.org/2000/svg" viewBox="0 0 96.1 89.6"><title>icon-download</title><path d="M92.7,48.4a3.33,3.33,0,0,0-3.3,3.3V83H6.5V51.7a3.33,3.33,0,0,0-3.3-3.3A3.24,3.24,0,0,0,0,51.7V86.3a3.33,3.33,0,0,0,3.3,3.3H92.8a3.33,3.33,0,0,0,3.3-3.3V51.7A3.49,3.49,0,0,0,92.7,48.4Z"/><path d="M65.6,48.5,51.9,61.3V3.3a3.3,3.3,0,1,0-6.6,0V61.4L31,48.4a3.1,3.1,0,0,0-2.2-.9,3.19,3.19,0,0,0-2.4,1.1,3.29,3.29,0,0,0,.2,4.6l19.8,18a3.24,3.24,0,0,0,4.4,0L70,53.2a3.2,3.2,0,0,0,.1-4.6A3.08,3.08,0,0,0,65.6,48.5Z"/></svg>