<?xml version="1.0" encoding="utf-8"?>
<!-- Generator: Adobe Illustrator 21.1.0, SVG Export Plug-In . SVG Version: 6.00 Build 0)  -->
<svg version="1.1" id="レイヤー_1" xmlns="http://www.w3.org/2000/svg" xmlns:xlink="http://www.w3.org/1999/xlink" x="0px"
	 y="0px" viewBox="0 0 619.3 114.9" style="enable-background:new 0 0 619.3 114.9;" xml:space="preserve">
<style type="text/css">
	.st0{fill:#1C1CEA;}
</style>
<g>
	<path class="st0" d="M50.9,3.9c1.8-1.8,3.7-2.6,5.5-2.6c0.3,0,0.3,0,0.5,0l0,0l0,0c1.8,0,3.4,0.8,5.3,2.4
		C69.1,9.7,76.5,15.3,84.3,20c9.5,5.8,18.7,10,27.4,12.9c1.1,0.3,1.8,0.8,2.1,1.8c0.3,1.1,0.3,2.4,0,3.4c-0.5,1.1-1.1,1.6-1.8,2.1
		c-0.8,0.3-1.8,0-3.2-0.3c-6.3-2.1-15-6.3-26.1-12.6C73,21.1,65.4,15.8,60.1,10.8c-1.3-1.3-2.6-2.1-3.7-2.1
		c-1.3,0.3-2.6,1.1-3.9,2.4c-5,5-12.4,10.5-21.6,16.3c-9.7,6.1-18.4,10.5-26.1,13.2c-1.1,0.3-2.1,0.3-2.9,0
		c-0.8-0.3-1.6-1.1-1.8-2.1s-0.3-2.1,0-2.9s1.1-1.6,2.1-1.8c9.2-3.2,18.4-7.6,27.4-13.4C37.5,15.5,44.3,10,50.9,3.9z M101.5,40
		c0.8,0.8,1.3,1.6,1.3,2.6c0,1.3-0.5,2.1-1.1,2.6c-0.8,0.8-1.8,1.1-2.6,1.1H60.9v24.7h36.8c0.8,0,1.6,0.3,2.4,0.8
		c0.8,0.8,1.3,1.6,1.3,2.6c0,1.3-0.5,2.1-1.1,2.6c-0.8,0.8-1.8,1.1-2.6,1.1H60.9v25.3h48.7c0.8,0,1.6,0.3,2.4,0.8
		c0.8,0.8,1.3,1.6,1.3,2.6c0,1.3-0.5,2.1-1.1,2.6c-0.8,0.8-1.8,1.1-2.6,1.1H4.9c-0.8,0-1.8-0.5-2.6-1.1c-0.8-0.8-1.3-1.6-1.3-2.6
		c0-1.3,0.5-2.1,1.1-2.6c0.8-0.5,1.8-1.1,2.9-1.1h48.7V77.9H17.8c-0.8,0-1.8-0.5-2.6-1.1c-0.8-0.5-1.3-1.6-1.3-2.6
		c0-1.3,0.5-2.1,1.1-2.6c0.8,0,1.6-0.5,2.9-0.5h35.8V46.3H17.2c-0.8,0-1.8-0.5-2.6-1.1c-0.8-0.5-1.3-1.3-1.3-2.4
		c0-1.3,0.5-2.1,1.1-2.6c0.8-0.5,1.8-1.1,2.9-1.1h81.9C99.9,39.2,100.7,39.5,101.5,40z"/>
	<path class="st0" d="M134.1,7.1c2.4-2.4,5.3-3.7,8.4-3.7h81.1c3.4,0,6.3,1.1,8.7,3.2c2.1,2.1,3.2,4.7,3.2,8.4v83.4
		c-0.3,3.7-1.3,6.6-3.7,8.7c-2.1,2.1-5,2.9-8.9,3.2h-80.3c-3.2,0-6.1-1.3-8.4-3.4c-2.1-2.1-3.2-4.7-3.2-8.4V15.3
		C130.9,11.8,132,9.2,134.1,7.1z M138.3,96.6c0,2.1,0.5,3.9,1.6,5c1.1,1.3,2.6,1.8,4.5,1.8h76.3c2.4-0.3,4.2-0.5,5.3-1.6
		c1.3-1.3,2.1-2.9,2.1-5.3V17.1c-0.3-2.1-1.1-3.7-2.1-4.7c-1.3-1.3-2.9-1.8-4.5-1.6h-77.1c-1.8,0-3.4,0.5-4.5,1.6
		c-1.1,1.3-1.8,2.9-1.8,4.7v79.5H138.3z M219.4,22.6c0.8,0.8,1.3,1.6,1.3,2.6c0,1.3-0.5,2.1-1.1,2.6c-0.8,0.8-1.8,1.1-2.6,1.1h-29.5
		v23.4h27.9c0.8,0,1.6,0.3,2.4,0.8c0.8,0.8,1.3,1.6,1.3,2.6c0,1.3-0.5,2.1-1.1,2.6c-0.8,0.8-1.8,1.1-2.6,1.1h-27.9v26.3h31.8
		c0.8,0,1.6,0.3,2.4,0.8c0.8,0.8,1.3,1.6,1.3,2.6c0,1.3-0.5,2.1-1.1,2.6c-0.8,0.8-1.8,1.1-2.6,1.1h-71.1c-0.8,0-1.8-0.5-2.6-1.1
		c-0.8-0.5-1.3-1.6-1.3-2.6c0-1.3,0.5-2.1,1.1-2.6c0.8-0.5,1.8-1.1,2.9-1.1h31.8V59.2h-26.8c-0.8,0-1.8-0.5-2.6-1.1
		c-0.8-0.5-1.3-1.6-1.3-2.6c0-1.3,0.5-2.1,1.1-2.6c0.8-0.5,1.8-1.1,2.9-1.1h27.1V28.4h-29c-0.8,0-1.8-0.5-2.6-1.1s-1.3-1.6-1.3-2.6
		c0-1.3,0.5-2.1,1.1-2.6c0.8-0.5,1.8-1.1,2.9-1.1H217C217.8,21.8,218.6,22.1,219.4,22.6z M198.6,69.2c0-0.8,0.3-1.8,1.1-2.6
		c0.5-0.8,1.6-1.3,2.4-1.3c1.1,0,2.1,0.3,2.9,1.1c3.2,2.6,6.3,6.3,9.7,10.8c0.5,1.1,1.1,2.1,0.8,2.9c-0.3,0.8-0.8,1.8-1.6,2.4
		c-1.1,0.5-1.8,0.8-2.6,0.5c-1.1-0.3-1.8-0.8-2.6-1.8c-2.9-3.9-5.5-7.1-8.4-9.5C199.1,71.3,198.6,70.5,198.6,69.2z"/>
	<path class="st0" d="M254.4,44c-0.8-0.5-1.3-1.6-1.3-2.6c0-1.3,0.5-2.1,1.1-2.6c0.8-0.5,1.8-1.1,2.9-1.1h48.7v-7.9h-39.5
		c-0.8,0-1.8-0.5-2.6-1.1c-0.8-0.5-1.3-1.6-1.3-2.6c0-1.3,0.5-2.1,1.1-2.6c0.8-0.5,1.8-1.1,2.9-1.1h39.5v-7.9H261
		c-0.8,0-1.8-0.5-2.6-1.1c-0.8-0.5-1.3-1.6-1.3-2.6c0-1.3,0.5-2.1,1.1-2.6c0.8-0.5,1.8-1.1,2.9-1.1h44.7V3.7c0-1.3,0.3-2.1,0.8-2.6
		c0.8-0.5,1.6-1.1,2.6-1.1s1.8,0.5,2.6,1.1c0.8,0.8,1.1,1.6,1.1,2.6v3.4h45.5c0.8,0,1.6,0.3,2.4,0.8c0.8,0.8,1.3,1.6,1.3,2.6
		c0,1.3-0.5,2.1-1.1,2.6c-0.8,0.8-1.8,1.1-2.6,1.1h-45.5v7.9h40.3c0.8,0,1.6,0.3,2.4,0.8c0.8,0.8,1.3,1.6,1.3,2.6
		c0,1.3-0.5,2.1-1.1,2.6c-0.8,0.8-1.8,1.1-2.6,1.1h-40.3v7.9H362c0.8,0,1.6,0.3,2.4,0.8c0.8,0.8,1.3,1.6,1.3,2.6
		c0,1.3-0.5,2.1-1.1,2.6c-0.8,0.8-1.8,1.1-2.6,1.1H257C256,44.7,255.2,44.5,254.4,44z M353.6,56.1c1.6,1.6,2.4,3.7,2.4,6.6v39.2
		c0,3.4-0.5,6.1-2.1,7.6c-2.1,2.9-5.3,4.5-9.5,4.7c-4.2,0.3-10.5-0.8-18.7-2.6c-1.3-0.3-2.4-0.8-2.9-1.6c-0.5-0.8-0.5-1.8-0.5-2.9
		c0.3-1.1,0.8-1.8,1.6-2.4c0.8-0.5,2.1-0.5,3.2-0.3c7.4,1.8,12.4,2.6,15.3,2.4c2.6-0.3,4.5-1.3,5.8-3.2c0.5-0.8,0.5-2.1,0.5-3.9
		v-6.1h-76.1v17.1c0,1.3-0.3,2.1-1.1,2.9c-0.8,0.5-1.6,1.1-2.6,1.1s-2.1-0.5-2.6-1.1c-0.8-0.8-1.1-1.8-1.1-2.9V62.4
		c0-2.9,0.8-5.3,2.4-6.8c1.8-1.6,3.9-2.4,6.8-2.1h72.4C349.4,53.4,351.8,54.2,353.6,56.1z M276.5,60.8c-1.1,0-2.1,0.5-2.6,1.1
		c-0.8,0.8-1.1,1.8-1.1,2.9V70h76.1v-5.3c0-1.1-0.3-2.1-0.8-2.6c-0.8-0.8-1.8-1.3-2.9-1.3H276.5z M272.5,76.9v8.9h76.1v-8.9
		C348.6,76.9,272.5,76.9,272.5,76.9z"/>
	<path class="st0" d="M380.2,85.3c-0.8-0.5-1.3-1.6-1.3-2.6c0-1.3,0.5-2.1,1.1-2.6c0.8-0.5,1.8-1.1,2.9-1.1h14.7V47.4
		c0-3.2,1.1-6.1,2.9-7.9c1.8-1.8,4.2-2.6,7.6-2.6h35.5V17.4H402c-1.1,2.6-2.1,5.3-3.2,7.9c-3.7,7.4-7.9,13.2-12.6,17.6
		c-1.1,0.8-2.1,1.3-3.2,1.6c-1.1,0.3-1.8-0.3-2.4-1.3c-0.8-1.1-1.1-2.1-0.8-2.9c0-0.8,0.8-1.8,2.1-2.9c4.7-4.7,8.4-10,11.1-15.5
		c2.6-5.5,4.7-11.3,5.8-17.9c0.3-1.3,0.5-2.1,1.6-2.6c0.8-0.5,1.6-0.5,2.6-0.5c1.1,0.3,1.8,0.5,2.4,1.3c0.5,0.8,0.5,2.1,0.3,3.2
		c-0.5,1.8-0.8,3.4-1.3,5.3h84.2c0.8,0,1.6,0.3,2.4,0.8c0.8,0.8,1.3,1.6,1.3,2.6c0,1.3-0.5,2.1-1.1,2.6c-0.8,0.8-1.8,1.1-2.6,1.1
		H451v19.7h34.7c1.3,0,2.1,0.5,2.9,1.1c0.5,0.8,0.8,1.6,1.1,2.6c-0.3,1.1-0.5,2.1-1.1,2.6c-0.8,0.8-1.8,1.1-2.9,1.1H451V79h38.7
		c0.8,0,1.6,0.3,2.4,0.8c0.8,0.8,1.3,1.6,1.3,2.6c0,1.3-0.5,2.1-1.1,2.6c-0.8,0.8-1.8,1.1-2.6,1.1H451v24.5c0,1.1-0.3,2.1-1.1,2.9
		c-0.5,0.5-1.6,1.1-2.6,1.1s-1.8-0.5-2.6-1.1c-0.5-0.8-1.1-1.8-1.1-2.9V86.1h-60.5C382,86.3,381,86.1,380.2,85.3z M443.4,79V44.5
		h-33.2c-1.6,0-2.9,0.5-3.9,1.6s-1.6,2.6-1.6,3.9v29H443.4z"/>
	<path class="st0" d="M556.5,3.7c1.6-1.6,3.4-2.4,5.3-2.4c0.3,0,0.3,0,0.5,0l0,0l0,0c1.8,0,3.4,0.8,5.3,2.1
		c6.8,5.8,13.9,11.1,21.8,15.3c9.5,5.3,18.4,9.2,27.4,11.8c1.1,0.3,1.8,0.8,2.1,1.6c0.5,1.1,0.5,2.4,0,3.4c-0.3,1.1-0.8,1.6-1.6,2.1
		c-0.8,0.3-1.8,0.3-3.2,0c-6.3-1.8-15-5.8-26.1-11.8c-10-5.5-17.6-10.5-22.9-15c-1.3-1.1-2.6-1.8-3.7-1.8c-1.3,0.3-2.6,1.1-3.9,2.1
		c-5,4.7-12.4,9.7-21.6,15.3c-9.7,5.8-18.4,9.7-26.1,11.8c-1.1,0.3-2.1,0.3-2.9,0c-0.8-0.5-1.6-1.1-1.8-2.1c-0.3-1.1-0.3-2.1,0-2.9
		c0.5-0.8,1.1-1.3,2.1-1.8c9.2-3.2,18.2-7.1,27.4-12.4C542.8,14.5,549.9,9.2,556.5,3.7z M608.9,60.8c0.8,0.8,1.3,1.6,1.3,2.6
		c0,1.3-0.5,2.1-1.1,2.6c-0.8,0.8-1.8,1.1-2.6,1.1h-51.9c-4.5,9.5-11.3,20.8-20.3,34.2l64-5c-3.9-5.5-8.2-10.3-12.4-14.2
		c-0.8-0.8-1.3-1.8-1.3-2.6c0-1.1,0.3-1.8,1.1-2.6c0.8-0.8,1.6-1.3,2.6-1.3s1.8,0.5,2.6,1.3c8.2,7.6,16.1,17.9,23.4,30
		c0.5,1.1,0.8,2.1,0.5,2.9c-0.3,1.1-0.8,1.8-1.6,2.4c-0.8,0.5-1.8,0.8-2.9,0.5c-0.8-0.3-1.8-0.8-2.4-2.1c-1.8-3.2-3.7-6.1-5.3-8.4
		l-86.9,7.4c-1.3,0-2.4-0.3-3.2-0.8c-0.8-0.8-1.1-1.6-1.3-2.4c0-1.1,0.3-2.1,0.8-2.9c0.5-0.8,1.6-1.1,2.9-1.3l10-0.5
		c7.6-10.8,14.7-22.4,21.3-35H517c-0.8,0-1.8-0.5-2.6-1.1c-0.8-0.5-1.3-1.6-1.3-2.6c0-1.3,0.5-2.1,1.1-2.6c0.8-0.5,1.8-1.1,2.9-1.1
		h89.2C607.3,59.7,608.1,60,608.9,60.8z M591,36.1c0.8,0,1.6,0.3,2.4,0.8c0.8,0.8,1.3,1.6,1.3,2.6c0,1.3-0.5,2.1-1.1,2.6
		c-0.8,0.8-1.8,1.1-2.6,1.1h-59.2c-0.8,0-1.8-0.5-2.6-1.1s-1.3-1.6-1.3-2.6c0-1.3,0.5-2.1,1.1-2.6c0.8-0.5,1.8-1.1,2.9-1.1H591V36.1
		z"/>
</g>
</svg>
